<svg xmlns="http://www.w3.org/2000/svg" viewBox="0 0 300 500">
  <rect width="300" height="500" fill="#0A1628" rx="20"/>
  <rect x="20" y="40" width="260" height="420" fill="#0D2137" rx="12"/>
  <text x="150" y="80" text-anchor="middle" fill="#76FF03" font-size="11" font-weight="bold" font-family="sans-serif">CLOUD SYNC</text>
  <circle cx="150" cy="150" r="40" fill="none" stroke="#00BCD4" stroke-width="2" opacity="0.3"/>
  <circle cx="150" cy="150" r="25" fill="none" stroke="#00BCD4" stroke-width="2" opacity="0.5"/>
  <circle cx="150" cy="150" r="12" fill="#00BCD4" opacity="0.8"/>
  <path d="M120 130 Q140 120 150 130 Q160 120 180 130" stroke="#76FF03" stroke-width="2" fill="none" opacity="0.6"/>
  <path d="M125 145 Q140 138 150 145 Q160 138 175 145" stroke="#76FF03" stroke-width="1.5" fill="none" opacity="0.4"/>
  <text x="150" y="220" text-anchor="middle" fill="#fff" font-size="13" font-family="sans-serif">Synced 2 minutes ago</text>
  <rect x="40" y="250" width="220" height="1" fill="#1A1A1A"/>
  <text x="50" y="280" fill="#99B0CC" font-size="11" font-family="sans-serif">📱 Phone</text>
  <text x="250" y="280" fill="#76FF03" font-size="11" font-family="sans-serif" text-anchor="end">✓ Synced</text>
  <text x="50" y="300" fill="#99B0CC" font-size="11" font-family="sans-serif">☁️ Cloud</text>
  <text x="250" y="300" fill="#76FF03" font-size="11" font-family="sans-serif" text-anchor="end">✓ Online</text>
  <text x="50" y="340" fill="#99B0CC" font-size="11" font-family="sans-serif">47 catches backed up</text>
  <text x="50" y="358" fill="#99B0CC" font-size="11" font-family="sans-serif">12 photos synced</text>
  <rect x="40" y="380" width="220" height="30" fill="#0A1628" rx="6" opacity="0.5"/>
  <text x="60" y="400" fill="#00BCD4" font-size="10" font-family="sans-serif">🔄 Auto-sync enabled</text>
</svg>
