<svg xmlns="http://www.w3.org/2000/svg" viewBox="0 0 300 500"><rect width="300" height="500" fill="#0a1628" rx="20"/><rect width="260" height="420" x="20" y="40" fill="#0d2137" rx="12"/><text x="150" y="80" fill="#76ff03" font-family="sans-serif" font-size="11" font-weight="bold" text-anchor="middle">CLOUD SYNC</text><circle cx="150" cy="150" r="40" fill="none" stroke="#00bcd4" stroke-width="2" opacity=".3"/><circle cx="150" cy="150" r="25" fill="none" stroke="#00bcd4" stroke-width="2" opacity=".5"/><circle cx="150" cy="150" r="12" fill="#00bcd4" opacity=".8"/><path fill="none" stroke="#76ff03" stroke-width="2" d="M120 130q20-10 30 0 10-10 30 0" opacity=".6"/><path fill="none" stroke="#76ff03" stroke-width="1.5" d="M125 145q15-7 25 0 10-7 25 0" opacity=".4"/><text x="150" y="220" fill="#fff" font-family="sans-serif" font-size="13" text-anchor="middle">Synced 2 minutes ago</text><path fill="#1a1a1a" d="M40 250h220v1H40z"/><text x="50" y="280" fill="#99b0cc" font-family="sans-serif" font-size="11">📱 Phone</text><text x="250" y="280" fill="#76ff03" font-family="sans-serif" font-size="11" text-anchor="end">✓ Synced</text><text x="50" y="300" fill="#99b0cc" font-family="sans-serif" font-size="11">☁️ Cloud</text><text x="250" y="300" fill="#76ff03" font-family="sans-serif" font-size="11" text-anchor="end">✓ Online</text><text x="50" y="340" fill="#99b0cc" font-family="sans-serif" font-size="11">47 catches backed up</text><text x="50" y="358" fill="#99b0cc" font-family="sans-serif" font-size="11">12 photos synced</text><rect width="220" height="30" x="40" y="380" fill="#0a1628" opacity=".5" rx="6"/><text x="60" y="400" fill="#00bcd4" font-family="sans-serif" font-size="10">🔄 Auto-sync enabled</text></svg>