<svg xmlns="http://www.w3.org/2000/svg" viewBox="0 0 300 500">
  <rect width="300" height="500" fill="#0A1628" rx="20"/>
  <rect x="20" y="40" width="260" height="420" fill="#0D2137" rx="12"/>
  <rect x="30" y="50" width="240" height="200" fill="#0A1628" rx="8"/>
  <path d="M30 100 Q100 80 150 120 Q200 160 270 100" stroke="#00BCD4" stroke-width="2" fill="none" opacity="0.3"/>
  <path d="M30 150 Q80 130 120 160 Q180 200 270 150" stroke="#00BCD4" stroke-width="1.5" fill="none" opacity="0.2"/>
  <path d="M30 200 Q100 180 150 210 Q220 250 270 200" stroke="#00BCD4" stroke-width="1" fill="none" opacity="0.15"/>
  <circle cx="160" cy="140" r="8" fill="#76FF03" opacity="0.9"/>
  <circle cx="160" cy="140" r="14" fill="#76FF03" opacity="0.2"/>
  <path d="M160 148 L160 170" stroke="#76FF03" stroke-width="2"/>
  <circle cx="90" cy="180" r="5" fill="#FFD54F" opacity="0.7"/>
  <circle cx="210" cy="110" r="5" fill="#FFD54F" opacity="0.5"/>
  <circle cx="120" cy="90" r="4" fill="#FFD54F" opacity="0.6"/>
  <circle cx="230" cy="170" r="4" fill="#FFD54F" opacity="0.4"/>
  <text x="150" y="290" text-anchor="middle" fill="#76FF03" font-size="13" font-weight="bold" font-family="sans-serif">Lake Ontario</text>
  <text x="150" y="308" text-anchor="middle" fill="#99B0CC" font-size="10" font-family="sans-serif">8 catches • 4 species</text>
  <rect x="40" y="330" width="220" height="50" fill="#0A1628" rx="8" opacity="0.6"/>
  <circle cx="65" cy="355" r="5" fill="#00BCD4"/>
  <text x="80" y="350" fill="#fff" font-size="10" font-family="sans-serif">Depth: 12m</text>
  <text x="80" y="365" fill="#99B0CC" font-size="9" font-family="sans-serif">Water temp: 18°C</text>
  <circle cx="200" cy="355" r="5" fill="#FFD54F"/>
  <text x="215" y="350" fill="#fff" font-size="10" font-family="sans-serif">Wind: 8 km/h</text>
  <text x="215" y="365" fill="#99B0CC" font-size="9" font-family="sans-serif">Wave: 0.3m</text>
</svg>
