<svg xmlns="http://www.w3.org/2000/svg" viewBox="0 0 300 500"><rect width="300" height="500" fill="#0a1628" rx="20"/><rect width="260" height="420" x="20" y="40" fill="#0d2137" rx="12"/><rect width="240" height="200" x="30" y="50" fill="#0a1628" rx="8"/><path fill="none" stroke="#00bcd4" stroke-width="2" d="M30 100q70-20 120 20t120-20" opacity=".3"/><path fill="none" stroke="#00bcd4" stroke-width="1.5" d="M30 150q50-20 90 10 60 40 150-10" opacity=".2"/><path fill="none" stroke="#00bcd4" d="M30 200q70-20 120 10 70 40 120-10" opacity=".15"/><circle cx="160" cy="140" r="8" fill="#76ff03" opacity=".9"/><circle cx="160" cy="140" r="14" fill="#76ff03" opacity=".2"/><path stroke="#76ff03" stroke-width="2" d="M160 148v22"/><circle cx="90" cy="180" r="5" fill="#ffd54f" opacity=".7"/><circle cx="210" cy="110" r="5" fill="#ffd54f" opacity=".5"/><circle cx="120" cy="90" r="4" fill="#ffd54f" opacity=".6"/><circle cx="230" cy="170" r="4" fill="#ffd54f" opacity=".4"/><text x="150" y="290" fill="#76ff03" font-family="sans-serif" font-size="13" font-weight="bold" text-anchor="middle">Lake Ontario</text><text x="150" y="308" fill="#99b0cc" font-family="sans-serif" font-size="10" text-anchor="middle">8 catches • 4 species</text><rect width="220" height="50" x="40" y="330" fill="#0a1628" opacity=".6" rx="8"/><circle cx="65" cy="355" r="5" fill="#00bcd4"/><text x="80" y="350" fill="#fff" font-family="sans-serif" font-size="10">Depth: 12m</text><text x="80" y="365" fill="#99b0cc" font-family="sans-serif" font-size="9">Water temp: 18°C</text><circle cx="200" cy="355" r="5" fill="#ffd54f"/><text x="215" y="350" fill="#fff" font-family="sans-serif" font-size="10">Wind: 8 km/h</text><text x="215" y="365" fill="#99b0cc" font-family="sans-serif" font-size="9">Wave: 0.3m</text></svg>