<svg xmlns="http://www.w3.org/2000/svg" viewBox="0 0 300 500"><rect width="300" height="500" fill="#0a1628" rx="20"/><rect width="260" height="420" x="20" y="40" fill="#0d2137" rx="12"/><circle cx="150" cy="90" r="30" fill="#00bcd4" opacity=".15"/><circle cx="150" cy="90" r="20" fill="#00bcd4" opacity=".3"/><circle cx="150" cy="90" r="12" fill="#00bcd4" opacity=".5"/><text x="150" y="150" fill="#76ff03" font-family="sans-serif" font-size="14" font-weight="bold" text-anchor="middle">LISTENING</text><rect width="8" height="60" x="60" y="170" fill="#00bcd4" opacity=".6" rx="4"/><rect width="8" height="80" x="75" y="150" fill="#00bcd4" rx="4"/><rect width="8" height="70" x="90" y="160" fill="#00bcd4" opacity=".8" rx="4"/><rect width="8" height="90" x="105" y="140" fill="#76ff03" rx="4"/><rect width="8" height="100" x="120" y="130" fill="#76ff03" opacity=".9" rx="4"/><rect width="8" height="85" x="135" y="145" fill="#00bcd4" opacity=".7" rx="4"/><rect width="8" height="75" x="150" y="155" fill="#00bcd4" opacity=".5" rx="4"/><rect width="8" height="95" x="165" y="135" fill="#76ff03" opacity=".8" rx="4"/><rect width="8" height="85" x="180" y="145" fill="#00bcd4" opacity=".9" rx="4"/><rect width="8" height="70" x="195" y="160" fill="#00bcd4" opacity=".6" rx="4"/><rect width="8" height="80" x="210" y="150" fill="#00bcd4" rx="4"/><rect width="8" height="60" x="225" y="170" fill="#00bcd4" opacity=".7" rx="4"/><text x="150" y="290" fill="#99b0cc" font-family="sans-serif" font-size="11" text-anchor="middle">&quot;caught a 5lb largemouth</text><text x="150" y="308" fill="#99b0cc" font-family="sans-serif" font-size="11" text-anchor="middle">bass at the dock&quot;</text><circle cx="150" cy="420" r="30" fill="#00bcd4"/><path fill="#0a1628" d="m140 415 20 5-20 5Z"/></svg>