<svg xmlns="http://www.w3.org/2000/svg" viewBox="0 0 300 500">
  <rect width="300" height="500" fill="#0A1628" rx="20"/>
  <rect x="20" y="40" width="260" height="420" fill="#0D2137" rx="12"/>
  <circle cx="150" cy="90" r="30" fill="#00BCD4" opacity="0.15"/>
  <circle cx="150" cy="90" r="20" fill="#00BCD4" opacity="0.3"/>
  <circle cx="150" cy="90" r="12" fill="#00BCD4" opacity="0.5"/>
  <text x="150" y="150" text-anchor="middle" fill="#76FF03" font-size="14" font-weight="bold" font-family="sans-serif">LISTENING</text>
  <rect x="60" y="170" width="8" height="60" rx="4" fill="#00BCD4" opacity="0.6"/>
  <rect x="75" y="150" width="8" height="80" rx="4" fill="#00BCD4"/>
  <rect x="90" y="160" width="8" height="70" rx="4" fill="#00BCD4" opacity="0.8"/>
  <rect x="105" y="140" width="8" height="90" rx="4" fill="#76FF03"/>
  <rect x="120" y="130" width="8" height="100" rx="4" fill="#76FF03" opacity="0.9"/>
  <rect x="135" y="145" width="8" height="85" rx="4" fill="#00BCD4" opacity="0.7"/>
  <rect x="150" y="155" width="8" height="75" rx="4" fill="#00BCD4" opacity="0.5"/>
  <rect x="165" y="135" width="8" height="95" rx="4" fill="#76FF03" opacity="0.8"/>
  <rect x="180" y="145" width="8" height="85" rx="4" fill="#00BCD4" opacity="0.9"/>
  <rect x="195" y="160" width="8" height="70" rx="4" fill="#00BCD4" opacity="0.6"/>
  <rect x="210" y="150" width="8" height="80" rx="4" fill="#00BCD4"/>
  <rect x="225" y="170" width="8" height="60" rx="4" fill="#00BCD4" opacity="0.7"/>
  <text x="150" y="290" text-anchor="middle" fill="#99B0CC" font-size="11" font-family="sans-serif">"caught a 5lb largemouth</text>
  <text x="150" y="308" text-anchor="middle" fill="#99B0CC" font-size="11" font-family="sans-serif">bass at the dock"</text>
  <circle cx="150" cy="420" r="30" fill="#00BCD4"/>
  <path d="M140 415 L160 420 L140 425 Z" fill="#0A1628"/>
</svg>
